Coordinates
version=1
nRows=20
nColumns=63
inDegrees=yes

Units are S.I. units (second, meters, Newtons, ...)
If the header above contains a line with 'inDegrees', this indicates whether rotational values are in degrees (yes) or radians (no).

endheader
time	pelvis_tilt	pelvis_list	pelvis_rotation	pelvis_tx	pelvis_ty	pelvis_tz	hip_flexion_r	hip_adduction_r	hip_rotation_r	knee_angle_r	knee_angle_r_beta	ankle_angle_r	subtalar_angle_r	mtp_angle_r	hip_flexion_l	hip_adduction_l	hip_rotation_l	knee_angle_l	knee_angle_l_beta	ankle_angle_l	subtalar_angle_l	mtp_angle_l	L5_S1_Flex_Ext	L5_S1_Lat_Bending	L5_S1_axial_rotation	L4_L5_Flex_Ext	L4_L5_Lat_Bending	L4_L5_axial_rotation	L3_L4_Flex_Ext	L3_L4_Lat_Bending	L3_L4_axial_rotation	L2_L3_Flex_Ext	L2_L3_Lat_Bending	L2_L3_axial_rotation	L1_L2_Flex_Ext	L1_L2_Lat_Bending	L1_L2_axial_rotation	L1_T12_Flex_Ext	L1_T12_Lat_Bending	L1_T12_axial_rotation	Abs_r3	Abs_r2	Abs_r1	Abs_t1	Abs_t2	neck_flexion	neck_bending	neck_rotation	arm_flex_r	arm_add_r	arm_rot_r	elbow_flex_r	pro_sup_r	wrist_flex_r	wrist_dev_r	arm_flex_l	arm_add_l	arm_rot_l	elbow_flex_l	pro_sup_l	wrist_flex_l	wrist_dev_l
2.796296	2.588924	-1.385134	70.026361	0.213280	0.949193	0.481538	-0.696096	6.441627	9.019589	7.618301	0.132964	25.385692	-14.861227	0.000000	-5.650149	-6.488097	5.673955	0.550064	0.009600	30.999954	-7.714172	0.000000	-0.074393	1.002809	1.383450	-0.138155	1.333736	1.469916	-0.122220	2.438230	1.469916	-0.085023	2.438230	1.210519	-0.069081	2.044929	1.124053	-0.042508	1.553352	1.037588	-0.531380	11.343979	7.694335	0.000000	0.000000	23.165793	-3.922699	2.316592	18.675709	-7.070449	156.388931	-0.464978	0.442757	-11.992282	-5.542865	25.728832	0.367271	138.542325	4.494577	5.923388	-12.120161	-6.145171
2.814815	2.557598	-1.315370	70.789748	0.211427	0.950016	0.482282	-0.595097	6.315990	8.436997	7.583160	0.132351	25.556981	-14.889679	0.000000	-5.287579	-6.466247	4.471750	0.858690	0.014987	31.344060	-5.489950	0.000000	-0.062537	1.001894	1.251979	-0.116137	1.332520	1.330227	-0.102742	2.436006	1.330227	-0.071473	2.436006	1.095481	-0.058072	2.043063	1.017233	-0.035734	1.551934	0.938984	-0.446695	11.333630	6.963129	0.000000	0.000000	22.794828	-3.961938	2.130771	19.166744	-5.923762	154.493236	0.125873	1.365746	-10.960919	-6.533833	26.535457	2.028514	142.958019	3.883367	5.003546	-11.795673	-7.969281
2.833333	2.524830	-1.317007	71.670869	0.209462	0.950695	0.483451	-0.330463	6.217622	7.606207	7.679930	0.134040	25.765237	-14.864339	0.000000	-4.742657	-6.494878	2.988826	1.289567	0.022507	31.799709	-2.784233	0.000000	-0.048307	0.998246	1.095996	-0.089710	1.327667	1.164496	-0.079363	2.427134	1.164496	-0.055210	2.427134	0.958996	-0.044857	2.035622	0.890497	-0.027602	1.546282	0.821997	-0.345049	11.292353	6.095600	0.000000	0.000000	22.478610	-3.963011	1.836698	19.504125	-5.006741	150.397541	1.376146	3.891096	-9.755398	-6.939474	27.177596	3.589926	147.238438	3.275997	4.210455	-11.299357	-9.924433
2.851852	2.497798	-1.395462	72.581982	0.207516	0.951243	0.484994	0.087988	6.161251	6.660329	7.906175	0.137989	25.944998	-14.876721	0.000000	-4.067514	-6.571226	1.667291	1.793024	0.031294	32.204977	-0.306612	0.000000	-0.031492	0.993764	0.931977	-0.058483	1.321706	0.990225	-0.051738	2.416237	0.990225	-0.035992	2.416237	0.815480	-0.029243	2.026483	0.757231	-0.017994	1.539340	0.698982	-0.224943	11.241654	5.183374	0.000000	0.000000	22.223664	-3.958590	1.431362	19.662320	-4.356301	144.510626	3.272681	6.934525	-8.471372	-6.742870	27.663850	5.029294	151.762257	2.689992	3.377465	-10.827504	-11.910227
2.870370	2.481041	-1.547119	73.470911	0.205646	0.951668	0.486836	0.658802	6.142228	5.597678	8.288718	0.144665	26.114964	-14.848248	0.000000	-3.289731	-6.692980	0.262192	2.368821	0.041344	32.632462	2.241755	0.000000	-0.012054	0.990578	0.769369	-0.022386	1.317469	0.817455	-0.019804	2.408492	0.817455	-0.013777	2.408492	0.673198	-0.011194	2.019987	0.625113	-0.006888	1.534406	0.577027	-0.086104	11.205618	4.279001	0.000000	0.000000	22.025275	-3.960453	0.964929	19.624288	-4.019552	136.573038	5.825782	10.425358	-7.123261	-6.038213	27.983863	6.328882	156.169574	2.149945	2.740077	-10.388192	-13.831791
2.888889	2.464063	-1.744717	74.413741	0.203837	0.952002	0.488894	1.326449	6.136145	4.361019	8.770120	0.153067	26.237341	-14.830437	0.000000	-2.419783	-6.837097	-1.022024	3.023190	0.052765	33.026105	4.711982	0.000000	0.008890	0.985903	0.590644	0.016509	1.311251	0.627560	0.014605	2.397125	0.627560	0.010160	2.397125	0.516814	0.008255	2.010454	0.479898	0.005080	1.527164	0.442983	0.063499	11.152734	3.284986	0.000000	0.000000	21.882526	-3.978606	0.414896	19.433471	-3.929405	127.496583	8.872063	13.537841	-5.735616	-4.793438	28.178115	7.436642	160.588279	1.665226	2.120861	-9.951129	-15.624494
2.907407	2.430843	-1.975494	75.248693	0.202275	0.952242	0.491135	2.086413	6.131333	3.096204	9.376881	0.163657	26.328114	-14.777853	0.000000	-1.523312	-6.979573	-2.299069	3.709285	0.064739	33.387720	7.066336	0.000000	0.030187	0.978344	0.430373	0.056061	1.301197	0.457271	0.049595	2.378745	0.457271	0.034501	2.378745	0.376577	0.028032	1.995038	0.349678	0.017249	1.515454	0.322780	0.215625	11.067218	2.393606	0.000000	0.000000	21.790108	-4.023968	-0.226845	19.063005	-4.068999	117.319255	12.336354	16.966220	-4.402752	-3.101025	28.248645	8.338551	164.720562	1.273001	1.798569	-9.603601	-17.231067
2.925926	2.363828	-2.220127	75.924249	0.201042	0.952405	0.493479	2.908040	6.115093	1.941012	10.086192	0.176037	26.374225	-14.775270	0.000000	-0.642638	-7.093910	-3.551002	4.386788	0.076564	33.703719	9.247440	0.000000	0.051832	0.965071	0.301569	0.096258	1.283544	0.320418	0.085155	2.346473	0.320418	0.059239	2.346473	0.263873	0.048131	1.967972	0.245025	0.029617	1.494894	0.226177	0.370233	10.917072	1.677239	0.000000	0.000000	21.725022	-4.071507	-0.979032	18.520777	-4.391849	106.515197	16.073471	20.656945	-3.197471	-1.084366	28.214262	9.012365	168.468013	1.004732	1.928158	-9.384746	-18.620078
2.944444	2.261263	-2.447955	76.457111	0.200107	0.952535	0.495801	3.743336	6.065627	0.852982	10.867785	0.189679	26.408434	-14.744157	0.000000	0.179280	-7.159225	-4.663557	5.020915	0.087631	33.954580	11.129119	0.000000	0.072226	0.945308	0.205650	0.134131	1.257259	0.218504	0.118660	2.298421	0.218504	0.082547	2.298421	0.179944	0.067069	1.927671	0.167091	0.041270	1.464282	0.154238	0.515904	10.693510	1.143766	0.000000	0.000000	21.641899	-4.122462	-1.823180	17.814451	-4.856869	95.438164	19.942158	24.590394	-2.174943	1.185721	28.105972	9.452335	171.598699	0.915379	2.621192	-9.200160	-19.819125
2.962963	2.134197	-2.661495	76.816421	0.199461	0.952644	0.498047	4.566070	5.995667	-0.113957	11.671187	0.203701	26.454841	-14.632905	0.000000	0.933993	-7.195041	-5.905514	5.611018	0.097931	34.226961	13.041270	0.000000	0.090129	0.921536	0.148238	0.167379	1.225643	0.157503	0.148073	2.240622	0.157503	0.103009	2.240622	0.129708	0.083694	1.879196	0.120443	0.051500	1.427459	0.111179	0.643784	10.424599	0.824456	0.000000	0.000000	21.581888	-4.142790	-2.695900	17.003355	-5.435101	84.912121	23.818844	28.291026	-1.388464	3.728879	27.973643	9.768515	175.440911	0.828379	2.882537	-8.990271	-20.775238
2.981481	1.998845	-2.844444	77.000161	0.199065	0.952752	0.500103	5.332053	5.911908	-0.923080	12.458572	0.217443	26.520968	-14.446617	0.000000	1.575041	-7.199714	-7.077222	6.115423	0.106734	34.467338	14.696980	0.000000	0.103534	0.896448	0.129691	0.192273	1.192275	0.137797	0.170096	2.179623	0.137797	0.118329	2.179623	0.113479	0.096142	1.828036	0.105374	0.059159	1.388598	0.097268	0.739533	10.140796	0.721301	0.000000	0.000000	21.519352	-4.137014	-3.528376	16.120588	-6.106739	75.053109	27.595120	31.826996	-0.909506	6.450942	27.803609	9.973940	179.285323	0.769446	3.120251	-8.691784	-21.545225
3.000000	1.888262	-2.997124	77.042109	0.198827	0.952862	0.501869	6.005964	5.844786	-1.546523	13.179658	0.230028	26.589593	-14.234571	0.000000	2.082233	-7.198516	-8.036282	6.509295	0.113609	34.657460	15.941809	0.000000	0.111838	0.875741	0.140225	0.207694	1.164736	0.148990	0.183738	2.129277	0.148990	0.127819	2.129277	0.122697	0.103852	1.785811	0.113933	0.063904	1.356523	0.105169	0.798844	9.906559	0.779892	0.000000	0.000000	21.457960	-4.085781	-4.193384	15.203352	-6.850264	66.105388	31.162652	35.104826	-0.759545	9.253684	27.592682	10.103594	182.822805	0.732066	3.389170	-8.368282	-22.139562
3.018519	1.825798	-3.121845	76.916632	0.198740	0.952970	0.503303	6.570262	5.813342	-1.936543	13.811629	0.241058	26.682176	-13.966965	0.000000	2.435796	-7.211359	-8.772710	6.783555	0.118395	34.803411	16.728415	0.000000	0.114491	0.863310	0.182132	0.212621	1.148203	0.193516	0.188097	2.099053	0.193516	0.130852	2.099053	0.159366	0.106316	1.760463	0.147983	0.065420	1.337268	0.136599	0.817797	9.765940	1.012965	0.000000	0.000000	21.405220	-4.040147	-4.693390	14.294718	-7.636512	58.333571	34.409991	38.045093	-0.903404	12.010792	27.339399	10.187414	185.818517	0.684462	3.690851	-8.026363	-22.613307
3.037037	1.818343	-3.218158	76.687233	0.198723	0.953081	0.504353	7.003332	5.824367	-2.119423	14.312335	0.249797	26.772611	-13.676725	0.000000	2.640622	-7.248539	-9.276838	6.933428	0.121011	34.899494	17.115545	0.000000	0.112882	0.861053	0.244082	0.209633	1.145201	0.259337	0.185454	2.093564	0.259337	0.129013	2.093564	0.213571	0.104822	1.755859	0.198316	0.064501	1.333771	0.183061	0.806304	9.740404	1.357509	0.000000	0.000000	21.345761	-3.998303	-4.968906	13.424897	-8.429465	51.872548	37.218244	40.516567	-1.179095	14.484338	27.069920	10.266578	188.580009	0.604623	3.824420	-7.823651	-22.878134
3.055556	1.863387	-3.284539	76.354368	0.198785	0.953197	0.505012	7.296351	5.878218	-2.079539	14.670306	0.256045	26.859101	-13.370814	0.000000	2.688317	-7.306003	-9.500390	6.946931	0.121247	34.927620	17.042360	0.000000	0.108174	0.868542	0.324745	0.200890	1.155160	0.345042	0.177719	2.111772	0.345042	0.123632	2.111772	0.284152	0.100450	1.771130	0.263855	0.061811	1.345371	0.243559	0.772677	9.825117	1.806136	0.000000	0.000000	21.266052	-3.987398	-5.068688	12.635907	-9.180929	46.955273	39.491980	42.473807	-1.532107	16.514810	26.800057	10.357013	190.747529	0.524201	3.889430	-7.785370	-22.997803
3.074074	1.940571	-3.319280	75.928014	0.198934	0.953317	0.505343	7.467310	5.959673	-1.840239	14.910423	0.260236	26.948801	-13.055487	0.000000	2.588611	-7.364961	-9.445807	6.824551	0.119111	34.879784	16.531580	0.000000	0.101221	0.882335	0.421994	0.187978	1.173506	0.448368	0.166296	2.145310	0.448368	0.115686	2.145310	0.369244	0.093994	1.799258	0.342870	0.057838	1.366737	0.316495	0.723012	9.981153	2.347002	0.000000	0.000000	21.167182	-4.004280	-5.046181	11.985352	-9.827353	43.801238	41.139585	43.874991	-1.889760	17.903251	26.546759	10.460302	192.172091	0.470244	3.895557	-7.915650	-23.037154
3.092593	2.036630	-3.320565	75.375042	0.199221	0.953475	0.505433	7.523183	6.061837	-1.371212	15.037123	0.262447	27.000032	-12.777877	0.000000	2.335259	-7.406258	-9.049882	6.555038	0.114407	34.690849	15.427043	0.000000	0.092047	0.900195	0.537216	0.170941	1.197259	0.570792	0.151225	2.188733	0.570792	0.105201	2.188733	0.470064	0.085475	1.835677	0.436488	0.052596	1.394401	0.402912	0.657486	10.183181	2.987833	0.000000	0.000000	21.027674	-4.018486	-4.895028	11.534099	-10.278662	42.911673	42.027986	44.770736	-2.237364	18.523607	26.307884	10.574760	192.864012	0.454185	3.837238	-8.187947	-22.957860
3.111111	2.106074	-3.303219	74.846758	0.199511	0.953627	0.505415	7.529459	6.135919	-0.896199	15.108000	0.263684	27.104441	-12.428460	0.000000	2.099076	-7.435591	-9.190609	6.367869	0.111140	34.674535	15.097785	0.000000	0.084130	0.914090	0.645196	0.156237	1.215740	0.685521	0.138217	2.222519	0.685521	0.096152	2.222519	0.564547	0.078123	1.864013	0.524222	0.048072	1.415926	0.483897	0.600931	10.340371	3.588389	0.000000	0.000000	20.900275	-4.005159	-4.746085	11.348628	-10.460798	44.590649	42.000297	44.661024	-2.253461	18.176371	26.084343	10.663128	192.722629	0.461401	3.708058	-8.241841	-22.908578
3.129630	2.140221	-3.263314	74.315910	0.199884	0.953796	0.505318	7.478406	6.177380	-0.376704	15.117603	0.263852	27.220192	-12.069422	0.000000	1.835350	-7.427264	-9.291478	6.185582	0.107959	34.643177	14.721997	0.000000	0.077735	0.922263	0.742899	0.144362	1.226609	0.789330	0.127711	2.242389	0.789330	0.088843	2.242389	0.650037	0.072185	1.880678	0.603606	0.044418	1.428585	0.557174	0.555253	10.432819	4.131782	0.000000	0.000000	20.771815	-3.928016	-4.564124	11.479193	-10.280863	49.092716	40.937981	43.358175	-1.728707	16.809757	25.851869	10.702883	191.863073	0.472957	3.515760	-7.943742	-22.900076
3.148148	2.263225	-3.231835	73.775796	0.199977	0.954038	0.505058	7.358021	6.283425	0.079607	15.050290	0.262677	27.309855	-11.580347	0.000000	1.540495	-7.490400	-9.392221	6.015253	0.104986	34.629838	14.320302	0.000000	0.072591	0.943652	0.851278	0.134809	1.255057	0.904483	0.119260	2.294395	0.904483	0.082965	2.294395	0.744868	0.067408	1.924295	0.691664	0.041479	1.461717	0.638459	0.518513	10.674779	4.734554	0.000000	0.000000	20.675559	-3.900703	-4.492330	11.333079	-10.575213	48.961864	40.942468	45.339598	-1.543323	15.985937	25.917279	11.488982	196.258837	-1.236725	-0.867765	-6.742123	-23.975883
